<svg width="230" height="332" viewBox="0 0 230 332" fill="none" xmlns="http://www.w3.org/2000/svg">
<path d="M117.85 173L155.85 189V324.5H117.85V173Z" fill="#5D5C6C"/>
<path d="M117.85 0L146.85 17V56.5L117.85 34V0Z" fill="#828097"/>
<path d="M117.85 39L138.85 55.5V177L117.85 169V39Z" fill="#1F1F24"/>
<path d="M149.85 16.5L168.85 24V147L149.85 131.5V16.5Z" fill="#5D5C6C"/>
<path d="M151.85 245L170.85 251.5V324.5H151.85V245Z" fill="#5D5C6C"/>
<path d="M76.8503 28.5L114.85 0V324.5H76.8503V28.5Z" fill="#43424E"/>
<path d="M77.3306 120.149C68.352 187.5 63.8527 253.851 45.3526 289.5C26.8526 325.149 13.3306 325.149 13.3306 325.149" stroke="black" stroke-width="2"/>
<path d="M156.23 199.674C156.23 199.674 161.85 239.5 181.35 261.5C200.85 283.5 229.23 284.674 229.23 284.674" stroke="black" stroke-width="2"/>
<path d="M77.2176 226.338C77.2176 226.338 61.3497 270.5 48.3497 286.5C35.3496 302.5 0.217576 310.338 0.217576 310.338" stroke="black" stroke-width="2"/>
<path d="M77.2632 280.284C77.2632 280.284 67.8504 304.5 61.8504 311.5C55.8504 318.5 46.2632 325.284 46.2632 325.284" stroke="black" stroke-width="2"/>
<path d="M156.007 274.525C156.007 274.525 172.35 286 192.85 292C213.35 298 229.007 298.525 229.007 298.525" stroke="black" stroke-width="2"/>
</svg>
